<svg xmlns="http://www.w3.org/2000/svg" width="847" height="981" fill="none" viewBox="0 0 847 981"><path stroke="#BAF24A" stroke-linecap="round" stroke-linejoin="round" stroke-width="13.894" d="M11.3423 725.016L423.907 491.953L839.367 725.016L423.907 974.003L11.3423 725.016Z"/><path stroke="#D075FF" stroke-linecap="round" stroke-linejoin="round" stroke-width="13.894" d="M11.3415 725.008L423.906 973.994"/><path stroke="#D075FF" stroke-linecap="round" stroke-linejoin="round" stroke-width="13.894" d="M7 241.5V719.207"/><path stroke="#fff" stroke-linecap="round" stroke-linejoin="round" stroke-width="13.894" d="M425.352 8.45312L425.352 242.964"/><path stroke="#fff" stroke-linecap="round" stroke-linejoin="round" stroke-width="13.894" d="M425.352 494.836L425.352 729.347"/><path stroke="#89B0FF" stroke-linecap="round" stroke-linejoin="round" stroke-width="13.894" d="M839.367 241.5V719.207"/><path stroke="#fff" stroke-linecap="round" stroke-linejoin="round" stroke-width="13.894" d="M11.3423 240.063L423.907 7L839.367 240.063L423.907 489.049L11.3423 240.063Z"/><path stroke="#89B0FF" stroke-linecap="round" stroke-linejoin="round" stroke-width="13.894" d="M839.367 240.07L631.637 364.564"/><path stroke="#D075FF" stroke-linecap="round" stroke-linejoin="round" stroke-width="13.894" d="M425.352 738.035L425.352 972.546"/><path stroke="#BAF24A" stroke-linecap="round" stroke-linejoin="round" stroke-width="13.894" d="M839.367 719.224V480.371"/><path stroke="#FF5C16" stroke-linecap="round" stroke-linejoin="round" stroke-width="13.894" d="M425.352 248.738L425.352 480.354"/><path stroke="#FF5C16" stroke-linecap="round" stroke-linejoin="round" stroke-width="13.894" d="M423.906 491.953L11.3415 725.016"/><path stroke="#D075FF" stroke-linecap="round" stroke-linejoin="round" stroke-width="13.894" d="M11.3426 725.012L217.625 608.48"/><path stroke="#FF5C16" stroke-linecap="round" stroke-linejoin="round" stroke-width="13.894" d="M11.3415 240.07L423.906 489.057"/></svg>